<svg width="159" height="40" viewBox="0 0 159 40" fill="none" xmlns="http://www.w3.org/2000/svg">
<path d="M20 39C30.4934 39 39 30.4934 39 20C39 9.50659 30.4934 1 20 1C9.50659 1 1 9.50659 1 20C1 30.4934 9.50659 39 20 39Z" fill="url(#paint0_linear)"/>
<path d="M20.4362 22.1425C21.154 21.5089 25.9375 18.8682 25.9375 12.6035V10.7707C25.9375 9.68011 25.0497 8.79297 23.9583 8.79297C22.8669 8.79297 21.9791 9.68011 21.9791 10.7707V11.4299H18.0208V10.7707C18.0208 9.68011 17.133 8.79297 16.0416 8.79297C14.9502 8.79297 14.0625 9.68011 14.0625 10.7707V12.6035C14.0625 14.909 14.8108 17.1489 16.1454 18.9906C16.2793 18.8517 16.4045 18.7054 16.5455 18.5728C17.0235 18.1105 17.5737 17.6663 18.1671 17.2665C18.4959 17.0408 18.6549 16.9214 19.1512 16.3786C18.9448 16.0637 18.772 15.7292 18.6194 15.3854H21.3883C20.8237 16.6645 19.8718 17.6992 18.9054 18.359C18.3739 18.7176 17.8823 19.1149 17.4501 19.5326C15.2976 21.5579 14.0625 24.4241 14.0625 27.3965V29.2293C14.0625 30.3199 14.9503 31.207 16.0417 31.207C17.1331 31.207 18.0209 30.3199 18.0209 29.2293V28.5701H21.9792V29.2293C21.9792 30.3199 22.867 31.207 23.9584 31.207C25.0498 31.207 25.9375 30.3199 25.9375 29.2293V27.3965C25.9375 25.0887 25.1903 22.8524 23.8577 21.0184C22.3372 22.5973 21.8921 22.484 20.8507 23.6216C21.0563 23.937 21.2284 24.2712 21.3805 24.6147H18.6121C19.0243 23.6792 19.6395 22.8314 20.4362 22.1425ZM18.1972 14.0669C18.1028 13.6366 18.0411 13.1978 18.0316 12.7484H21.9714C21.9619 13.1947 21.9146 13.6363 21.8207 14.0669H18.1972ZM21.8024 25.9331C21.897 26.3638 21.9589 26.8027 21.9685 27.2516H18.0288C18.0382 26.805 18.0855 26.3634 18.179 25.9331H21.8024Z" fill="white"/>
<path d="M69.8747 25.0046H62.3623V22.1419H69.4067V18.3907H62.3623V15.5157H69.8747V11.3573H57V29.163H69.8747V25.0046Z" fill="black"/>
<path d="M83.9887 29.163L89.5281 11.3573H83.6093L80.6878 24.2026H80.5867L77.6652 11.3573H71.4935L77.0329 29.163H83.9887Z" fill="black"/>
<path d="M99.4181 11.0488C93.7775 11.0488 90.2237 14.5779 90.2237 20.2663C90.2237 25.9548 93.7648 29.4715 99.4181 29.4715C105.059 29.4715 108.612 25.9548 108.612 20.2663C108.612 14.5779 105.059 11.0488 99.4181 11.0488ZM99.4181 15.2195C101.657 15.2195 103.149 17.1815 103.149 20.2663C103.149 23.3388 101.669 25.3008 99.4181 25.3008C97.1669 25.3008 95.6872 23.3388 95.6872 20.2663C95.6872 17.1815 97.1795 15.2195 99.4181 15.2195Z" fill="black"/>
<path d="M115.492 29.3604C117.592 29.3604 119.211 28.2375 119.679 26.8062H119.78V29.163H124.965V11.3573H119.78V17.9959H119.679C119.135 16.4658 117.617 15.3429 115.581 15.3429C112.103 15.3429 110.054 17.9342 110.054 22.3147C110.054 26.7568 112.052 29.3604 115.492 29.3604ZM117.579 19.2422C118.97 19.2422 119.805 20.4144 119.805 22.364C119.805 24.326 118.983 25.4612 117.579 25.4612C116.175 25.4612 115.366 24.3013 115.366 22.3517C115.366 20.4267 116.188 19.2422 117.579 19.2422Z" fill="black"/>
<path d="M133.818 18.6746C135.032 18.6746 135.905 19.4643 135.993 20.6859H131.643C131.744 19.5136 132.642 18.6746 133.818 18.6746ZM136.145 24.7455C135.841 25.5599 134.994 26.0411 133.944 26.0411C132.553 26.0411 131.567 25.0787 131.567 23.746V23.4252H140.824V22.0555C140.824 17.8848 138.029 15.1949 133.704 15.1949C129.316 15.1949 126.571 17.9712 126.571 22.4257C126.571 26.8555 129.29 29.5085 133.869 29.5085C137.701 29.5085 140.331 27.6823 140.761 24.7455H136.145Z" fill="black"/>
<path d="M143.657 29.163H148.843V19.2051H151.372V15.6638H148.691V15.3429C148.691 14.726 149.184 14.3064 150.423 14.3064C150.778 14.3064 151.157 14.3311 151.41 14.3805V11.3573C150.866 11.2463 149.867 11.1476 148.982 11.1476C145.011 11.1476 143.657 12.3815 143.657 15.0961V15.6638H141.811V19.2051H143.657V29.163Z" fill="black"/>
<path d="M152.978 29.163H158.163V15.5404H152.978V29.163ZM155.571 14.7877C157.038 14.7877 158.151 13.7512 158.151 12.3938C158.151 11.0365 157.038 10 155.571 10C154.104 10 152.991 11.0365 152.991 12.3938C152.991 13.7512 154.104 14.7877 155.571 14.7877Z" fill="black"/>
<defs>
<linearGradient id="paint0_linear" x1="20" y1="39" x2="20" y2="1" gradientUnits="userSpaceOnUse">
<stop stop-color="#00F07D"/>
<stop offset="1" stop-color="#0074FD"/>
</linearGradient>
</defs>
</svg>
